<svg width="28" height="26" viewBox="0 0 28 26" fill="none" xmlns="http://www.w3.org/2000/svg">
<g clip-path="url(#clip0_11_140)">
<path d="M0 22.75C0 23.612 0.368749 24.4386 1.02513 25.0481C1.6815 25.6576 2.57174 26 3.5 26H24.5C25.4283 26 26.3185 25.6576 26.9749 25.0481C27.6313 24.4386 28 23.612 28 22.75V3.25C28 2.38805 27.6313 1.5614 26.9749 0.951903C26.3185 0.34241 25.4283 0 24.5 0L3.5 0C2.57174 0 1.6815 0.34241 1.02513 0.951903C0.368749 1.5614 0 2.38805 0 3.25L0 22.75ZM7.875 12.1875H18.0128L14.2555 8.70025C14.0912 8.54768 13.9989 8.34076 13.9989 8.125C13.9989 7.90924 14.0912 7.70232 14.2555 7.54975C14.4198 7.39718 14.6426 7.31147 14.875 7.31147C15.1074 7.31147 15.3302 7.39718 15.4945 7.54975L20.7445 12.4247C20.826 12.5002 20.8906 12.5899 20.9347 12.6886C20.9789 12.7873 21.0016 12.8931 21.0016 13C21.0016 13.1069 20.9789 13.2127 20.9347 13.3114C20.8906 13.4101 20.826 13.4998 20.7445 13.5753L15.4945 18.4503C15.3302 18.6028 15.1074 18.6885 14.875 18.6885C14.6426 18.6885 14.4198 18.6028 14.2555 18.4503C14.0912 18.2977 13.9989 18.0908 13.9989 17.875C13.9989 17.6592 14.0912 17.4523 14.2555 17.2997L18.0128 13.8125H7.875C7.64294 13.8125 7.42038 13.7269 7.25628 13.5745C7.09219 13.4222 7 13.2155 7 13C7 12.7845 7.09219 12.5778 7.25628 12.4255C7.42038 12.2731 7.64294 12.1875 7.875 12.1875V12.1875Z" fill="#EAE5FF"/>
</g>
<defs>
<clipPath id="clip0_11_140">
<rect width="28" height="26" fill="white"/>
</clipPath>
</defs>
</svg>
