<svg width="40" height="40" viewBox="0 0 40 40" fill="none" xmlns="http://www.w3.org/2000/svg">
<path d="M36.25 0H3.75C1.67969 0 0 1.91964 0 4.28571V35.7143C0 38.0804 1.67969 40 3.75 40H36.25C38.3203 40 40 38.0804 40 35.7143V4.28571C40 1.91964 38.3203 0 36.25 0ZM29.7187 25.9375C30.0937 26.3661 30.0937 27.0625 29.7187 27.4911L26.5547 31.1071C26.1797 31.5357 25.5703 31.5357 25.1953 31.1071L20 25.1161L14.8047 31.1071C14.4297 31.5357 13.8203 31.5357 13.4453 31.1071L10.2813 27.4911C9.90625 27.0625 9.90625 26.3661 10.2813 25.9375L15.5234 20L10.2813 14.0625C9.90625 13.6339 9.90625 12.9375 10.2813 12.5089L13.4453 8.89286C13.8203 8.46429 14.4297 8.46429 14.8047 8.89286L20 14.8839L25.1953 8.89286C25.5703 8.46429 26.1797 8.46429 26.5547 8.89286L29.7187 12.5089C30.0937 12.9375 30.0937 13.6339 29.7187 14.0625L24.4766 20L29.7187 25.9375Z" fill="#EAE5FF"/>
</svg>
